<svg width="1280" height="166" viewBox="0 0 1280 166" fill="none" xmlns="http://www.w3.org/2000/svg">
<path d="M1171.04 0.181824L1207.55 60.9063H1208.85L1245.53 0.181824H1279.77L1228.68 83.0909L1280.58 166H1245.77L1208.85 105.68H1207.55L1170.63 166H1135.98L1188.36 83.0909L1136.63 0.181824H1171.04Z" fill="#F5F5F5"/>
<path d="M1011.05 0.181824V166H984.333L906.201 53.0526H904.825V166H874.786V0.181824H901.667L979.718 113.21H981.176V0.181824H1011.05Z" fill="#F5F5F5"/>
<path d="M713.494 166V0.181824H821.341V25.3622H743.533V70.3793H815.754V95.5597H743.533V140.82H821.988V166H713.494Z" fill="#F5F5F5"/>
<path d="M536.393 166V0.181824H566.432V76.3707H568.456L633.148 0.181824H669.825L605.7 74.5895L670.392 166H634.281L584.811 94.9119L566.432 116.611V166H536.393Z" fill="#F5F5F5"/>
<path d="M359.293 166V0.181824H389.331V76.3707H391.355L456.047 0.181824H492.724L428.599 74.5895L493.291 166H457.18L407.71 94.9119L389.331 116.611V166H359.293Z" fill="#F5F5F5"/>
<path d="M192.798 166H160.736L219.112 0.181824H256.195L314.652 166H282.59L238.301 34.1875H237.006L192.798 166ZM193.851 100.984H281.294V125.112H193.851V100.984Z" fill="#F5F5F5"/>
<path d="M-1.14331 166V0.181824H62.334C74.3169 0.181824 84.2757 2.07103 92.2104 5.84943C100.199 9.57387 106.164 14.6747 110.104 21.152C114.098 27.6293 116.095 34.9702 116.095 43.1747C116.095 49.9219 114.8 55.6974 112.209 60.5014C109.618 65.2514 106.137 69.1108 101.764 72.0795C97.3922 75.0483 92.5073 77.1804 87.1095 78.4759V80.0952C92.9931 80.4191 98.6337 82.2273 104.031 85.5199C109.483 88.7585 113.936 93.3466 117.391 99.2841C120.845 105.222 122.573 112.401 122.573 120.821C122.573 129.403 120.494 137.122 116.338 143.977C112.182 150.778 105.921 156.149 97.5541 160.09C89.1877 164.03 78.6621 166 65.9774 166H-1.14331ZM28.895 140.901H61.2004C72.1039 140.901 79.9576 138.822 84.7615 134.666C89.6195 130.456 92.0484 125.058 92.0484 118.473C92.0484 113.561 90.834 109.135 88.405 105.195C85.976 101.2 82.5215 98.0696 78.0414 95.8026C73.5612 93.4815 68.2175 92.321 62.0101 92.321H28.895V140.901ZM28.895 70.7031H58.6095C63.7914 70.7031 68.4604 69.7585 72.6166 67.8693C76.7729 65.9261 80.0385 63.2003 82.4135 59.6918C84.8425 56.1293 86.057 51.919 86.057 47.0611C86.057 40.6378 83.7899 35.348 79.2558 31.1918C74.7757 27.0355 68.1095 24.9574 59.2573 24.9574H28.895V70.7031Z" fill="#F5F5F5"/>
</svg>